<svg width="35" height="35" viewBox="0 0 35 35" fill="none" xmlns="http://www.w3.org/2000/svg">
<path d="M7.29167 7.29167C7.29167 6.51812 7.59896 5.77625 8.14594 5.22927C8.69292 4.68229 9.43479 4.375 10.2083 4.375H24.7917C25.5652 4.375 26.3071 4.68229 26.8541 5.22927C27.401 5.77625 27.7083 6.51812 27.7083 7.29167V27.7083C27.7083 28.4819 27.401 29.2237 26.8541 29.7707C26.3071 30.3177 25.5652 30.625 24.7917 30.625H10.2083C9.43479 30.625 8.69292 30.3177 8.14594 29.7707C7.59896 29.2237 7.29167 28.4819 7.29167 27.7083V7.29167Z" stroke="#4E5969" stroke-width="3" stroke-linecap="round" stroke-linejoin="round"/>
<path d="M13.125 10.2083H21.875" stroke="#4E5969" stroke-width="3" stroke-linecap="round" stroke-linejoin="round"/>
<path d="M13.125 16.0417H21.875" stroke="#4E5969" stroke-width="3" stroke-linecap="round" stroke-linejoin="round"/>
<path d="M13.125 21.875H18.9583" stroke="#4E5969" stroke-width="3" stroke-linecap="round" stroke-linejoin="round"/>
</svg>
