<svg width="21" height="21" viewBox="0 0 21 21" fill="none" xmlns="http://www.w3.org/2000/svg">
<g clip-path="url(#clip0_2_26)">
<path d="M3.5 6.125C3.5 5.66087 3.68437 5.21575 4.01256 4.88756C4.34075 4.55937 4.78587 4.375 5.25 4.375H15.75C16.2141 4.375 16.6592 4.55937 16.9874 4.88756C17.3156 5.21575 17.5 5.66087 17.5 6.125V16.625C17.5 17.0891 17.3156 17.5342 16.9874 17.8624C16.6592 18.1906 16.2141 18.375 15.75 18.375H5.25C4.78587 18.375 4.34075 18.1906 4.01256 17.8624C3.68437 17.5342 3.5 17.0891 3.5 16.625V6.125Z" stroke="#4E5969" stroke-width="2" stroke-linecap="round" stroke-linejoin="round"/>
<path d="M14 2.625V6.125" stroke="#4E5969" stroke-width="2" stroke-linecap="round" stroke-linejoin="round"/>
<path d="M7 2.625V6.125" stroke="#4E5969" stroke-width="2" stroke-linecap="round" stroke-linejoin="round"/>
<path d="M3.5 9.625H17.5" stroke="#4E5969" stroke-width="2" stroke-linecap="round" stroke-linejoin="round"/>
<path d="M7 13.125H8.75V14.875H7V13.125Z" stroke="#4E5969" stroke-width="2" stroke-linecap="round" stroke-linejoin="round"/>
</g>
<defs>
<clipPath id="clip0_2_26">
<rect width="21" height="21" fill="white"/>
</clipPath>
</defs>
</svg>
