<svg width="34" height="34" viewBox="0 0 34 34" fill="none" xmlns="http://www.w3.org/2000/svg">
<path d="M5.33333 17H2L17 2L32 17H28.6667" stroke="#4E5969" stroke-width="3" stroke-linecap="round" stroke-linejoin="round"/>
<path d="M5.33333 17V28.6667C5.33333 29.5507 5.68452 30.3986 6.30964 31.0237C6.93476 31.6488 7.78261 32 8.66667 32H25.3333C26.2174 32 27.0652 31.6488 27.6904 31.0237C28.3155 30.3986 28.6667 29.5507 28.6667 28.6667V17" stroke="#4E5969" stroke-width="3" stroke-linecap="round" stroke-linejoin="round"/>
<path d="M12 32V22C12 21.1159 12.3512 20.2681 12.9763 19.6429C13.6014 19.0178 14.4493 18.6666 15.3333 18.6666H18.6667C19.5507 18.6666 20.3986 19.0178 21.0237 19.6429C21.6488 20.2681 22 21.1159 22 22V32" stroke="#4E5969" stroke-width="3" stroke-linecap="round" stroke-linejoin="round"/>
</svg>
