<svg width="37" height="37" viewBox="0 0 37 37" fill="none" xmlns="http://www.w3.org/2000/svg">
<path d="M15.4292 4.4145C16.2102 1.19517 20.7898 1.19517 21.5708 4.4145C21.688 4.89813 21.9177 5.34726 22.2413 5.72533C22.5649 6.1034 22.9731 6.39973 23.4329 6.5902C23.8926 6.78067 24.3908 6.85989 24.8869 6.82143C25.3831 6.78296 25.8631 6.62789 26.288 6.36883C29.1168 4.6455 32.3563 7.88317 30.633 10.7138C30.3743 11.1385 30.2195 11.6183 30.1811 12.1141C30.1427 12.6099 30.2219 13.1077 30.4121 13.5672C30.6024 14.0266 30.8984 14.4347 31.276 14.7583C31.6536 15.0818 32.1023 15.3117 32.5855 15.4292C35.8048 16.2102 35.8048 20.7898 32.5855 21.5708C32.1019 21.688 31.6527 21.9177 31.2747 22.2413C30.8966 22.5649 30.6003 22.9731 30.4098 23.4329C30.2193 23.8926 30.1401 24.3908 30.1786 24.8869C30.217 25.3831 30.3721 25.8631 30.6312 26.288C32.3545 29.1168 29.1168 32.3563 26.2862 30.633C25.8615 30.3743 25.3817 30.2195 24.8859 30.1811C24.3901 30.1427 23.8923 30.2219 23.4328 30.4121C22.9734 30.6024 22.5653 30.8984 22.2417 31.276C21.9182 31.6536 21.6883 32.1023 21.5708 32.5855C20.7898 35.8048 16.2102 35.8048 15.4292 32.5855C15.312 32.1019 15.0823 31.6527 14.7587 31.2747C14.4351 30.8966 14.0269 30.6003 13.5671 30.4098C13.1074 30.2193 12.6092 30.1401 12.1131 30.1786C11.6169 30.217 11.1369 30.3721 10.712 30.6312C7.88317 32.3545 4.64367 29.1168 6.367 26.2862C6.62569 25.8615 6.78051 25.3817 6.81889 24.8859C6.85726 24.3901 6.77811 23.8923 6.58787 23.4328C6.39762 22.9734 6.10164 22.5653 5.724 22.2417C5.34636 21.9182 4.8977 21.6883 4.4145 21.5708C1.19517 20.7898 1.19517 16.2102 4.4145 15.4292C4.89813 15.312 5.34726 15.0823 5.72533 14.7587C6.1034 14.4351 6.39973 14.0269 6.5902 13.5671C6.78067 13.1074 6.85989 12.6092 6.82143 12.1131C6.78296 11.6169 6.62789 11.1369 6.36883 10.712C4.6455 7.88317 7.88317 4.64367 10.7138 6.367C12.5472 7.48167 14.9232 6.49533 15.4292 4.4145Z" stroke="#4E5969" stroke-width="3" stroke-linecap="round" stroke-linejoin="round"/>
<path d="M13 18.5C13 19.9587 13.5795 21.3576 14.6109 22.3891C15.6424 23.4205 17.0413 24 18.5 24C19.9587 24 21.3576 23.4205 22.3891 22.3891C23.4205 21.3576 24 19.9587 24 18.5C24 17.0413 23.4205 15.6424 22.3891 14.6109C21.3576 13.5795 19.9587 13 18.5 13C17.0413 13 15.6424 13.5795 14.6109 14.6109C13.5795 15.6424 13 17.0413 13 18.5Z" stroke="#4E5969" stroke-width="3" stroke-linecap="round" stroke-linejoin="round"/>
</svg>
