<svg width="20" height="20" viewBox="0 0 20 20" fill="none" xmlns="http://www.w3.org/2000/svg">
<path d="M10.6185 0.194391L10.7044 0.270271L15.7339 5.29846C15.888 5.4534 15.9816 5.65842 15.9976 5.87636C16.0135 6.09431 15.9509 6.31077 15.821 6.48653C15.6911 6.66228 15.5025 6.78569 15.2894 6.8344C15.0763 6.88311 14.8528 6.85391 14.6594 6.75207L11.7588 9.65105L10.4566 13.1223C10.4223 13.2139 10.3735 13.2994 10.3121 13.3756L10.2481 13.4487L8.87645 14.82C8.71887 14.9773 8.50931 15.0717 8.28708 15.0855C8.06485 15.0993 7.84521 15.0316 7.66938 14.895L7.58251 14.8191L5.02846 12.2666L1.55996 15.7333C1.3954 15.8973 1.17458 15.9925 0.942359 15.9996C0.710136 16.0067 0.48392 15.9251 0.309658 15.7715C0.135397 15.6179 0.0261556 15.4037 0.00412329 15.1725C-0.017909 14.9413 0.0489194 14.7103 0.191035 14.5266L0.266934 14.4406L3.73452 10.973L1.18138 8.4196C1.02393 8.26218 0.929352 8.05273 0.915378 7.83055C0.901404 7.60837 0.968999 7.38873 1.10548 7.21283L1.18138 7.1269L2.55305 5.75557C2.62205 5.68634 2.7017 5.62862 2.78898 5.58461L2.87859 5.54621L6.34983 4.24346L9.24954 1.34539C9.15066 1.16056 9.11831 0.947382 9.15791 0.741553C9.1975 0.535724 9.30664 0.349747 9.46704 0.214775C9.62744 0.0798026 9.82936 0.00403204 10.039 0.00015462C10.2486 -0.00372279 10.4532 0.0654427 10.6185 0.194391Z" fill="#4E5969"/>
</svg>
