<svg width="45" height="45" viewBox="0 0 45 45" fill="none" xmlns="http://www.w3.org/2000/svg">
<rect width="45" height="45" rx="11" fill="#5865F2"/>
<path d="M31.8716 13.7563C30.1238 12.9385 28.255 12.3443 26.3013 12.0059C26.0613 12.4397 25.781 13.0232 25.5877 13.4873C23.5108 13.175 21.453 13.175 19.4143 13.4873C19.2211 13.0232 18.9344 12.4397 18.6923 12.0059C16.7364 12.3443 14.8655 12.9407 13.1177 13.7606C9.59247 19.0877 8.63684 24.2825 9.11466 29.4035C11.4528 31.1496 13.7187 32.2103 15.9464 32.9043C16.4964 32.1473 16.987 31.3426 17.4096 30.4946C16.6047 30.1887 15.8338 29.8113 15.1055 29.3732C15.2987 29.23 15.4877 29.0803 15.6703 28.9263C20.113 31.0043 24.94 31.0043 29.3296 28.9263C29.5143 29.0803 29.7033 29.23 29.8944 29.3732C29.1639 29.8135 28.3909 30.1909 27.5861 30.4967C28.0087 31.3426 28.4971 32.1495 29.0493 32.9065C31.2791 32.2124 33.5471 31.1518 35.8852 29.4035C36.4459 23.467 34.9275 18.3199 31.8716 13.7563ZM18.0148 26.2541C16.6812 26.2541 15.5875 25.0091 15.5875 23.493C15.5875 21.9768 16.6578 20.7297 18.0148 20.7297C19.3719 20.7297 20.4655 21.9747 20.4421 23.493C20.4443 25.0091 19.3719 26.2541 18.0148 26.2541ZM26.9851 26.2541C25.6514 26.2541 24.5578 25.0091 24.5578 23.493C24.5578 21.9768 25.6281 20.7297 26.9851 20.7297C28.3421 20.7297 29.4358 21.9747 29.4124 23.493C29.4124 25.0091 28.3421 26.2541 26.9851 26.2541Z" fill="white"/>
</svg>
