<svg width="45" height="45" viewBox="0 0 45 45" fill="none" xmlns="http://www.w3.org/2000/svg">
<rect width="45" height="45" rx="11" fill="white"/>
<g clip-path="url(#clip0_343_122)">
<path d="M10.0455 34H14.8182V22.1515L8 16.9242V31.9091C8 33.0661 8.91705 34 10.0455 34Z" fill="#4285F4"/>
<path d="M31.1818 34H35.9545C37.0863 34 37.9999 33.0626 37.9999 31.9091V16.9242L31.1818 22.1515" fill="#34A853"/>
<path d="M31.1818 13.0909V22.1515L37.9999 16.9242V14.1364C37.9999 11.5506 35.1124 10.0765 33.0909 11.6273" fill="#FBBC04"/>
<path d="M14.8182 22.1515V13.0909L23.0001 19.3636L31.1819 13.0909V22.1515L23.0001 28.4242" fill="#EA4335"/>
<path d="M8 14.1364V16.9242L14.8182 22.1515V13.0909L12.9091 11.6273C10.8841 10.0765 8 11.5506 8 14.1364Z" fill="#C5221F"/>
</g>
<defs>
<clipPath id="clip0_343_122">
<rect width="30" height="23" fill="white" transform="translate(8 11)"/>
</clipPath>
</defs>
</svg>
