<svg width="45" height="45" viewBox="0 0 45 45" fill="none" xmlns="http://www.w3.org/2000/svg">
<g clip-path="url(#clip0_37_591)">
<path d="M33.75 0H11.25C5.0368 0 0 5.0368 0 11.25V33.75C0 39.9632 5.0368 45 11.25 45H33.75C39.9632 45 45 39.9632 45 33.75V11.25C45 5.0368 39.9632 0 33.75 0Z" fill="black"/>
<path fill-rule="evenodd" clip-rule="evenodd" d="M22.5 9C15.0412 9 9 15.0412 9 22.5C9 28.4737 12.8644 33.5194 18.2306 35.3081C18.9056 35.4263 19.1588 35.0212 19.1588 34.6669C19.1588 34.3463 19.1419 33.2831 19.1419 32.1525C15.75 32.7769 14.8725 31.3256 14.6025 30.5662C14.4506 30.1781 13.7925 28.98 13.2188 28.6594C12.7462 28.4062 12.0712 27.7819 13.2019 27.765C14.265 27.7481 15.0244 28.7437 15.2775 29.1488C16.4925 31.1906 18.4331 30.6169 19.2094 30.2625C19.3275 29.385 19.6819 28.7944 20.07 28.4569C17.0662 28.1194 13.9275 26.955 13.9275 21.7913C13.9275 20.3231 14.4506 19.1081 15.3112 18.1631C15.1762 17.8256 14.7037 16.4419 15.4462 14.5856C15.4462 14.5856 16.5769 14.2312 19.1588 15.9694C20.2388 15.6656 21.3863 15.5138 22.5338 15.5138C23.6813 15.5138 24.8288 15.6656 25.9088 15.9694C28.4906 14.2144 29.6213 14.5856 29.6213 14.5856C30.3638 16.4419 29.8913 17.8256 29.7563 18.1631C30.6169 19.1081 31.14 20.3063 31.14 21.7913C31.14 26.9719 27.9844 28.1194 24.9806 28.4569C25.47 28.8787 25.8919 29.6887 25.8919 30.9544C25.8919 32.76 25.875 34.2113 25.875 34.6669C25.875 35.0212 26.1281 35.4431 26.8031 35.3081C32.1356 33.5194 36 28.4569 36 22.5C36 15.0412 29.9587 9 22.5 9Z" fill="white"/>
</g>
<defs>
<clipPath id="clip0_37_591">
<rect width="45" height="45" fill="white"/>
</clipPath>
</defs>
</svg>
