<svg width="45" height="45" viewBox="0 0 45 45" fill="none" xmlns="http://www.w3.org/2000/svg">
<path d="M22.5074 0C13.1139 0 10.3666 0.00969053 9.83258 0.0539901C7.90486 0.21423 6.7053 0.517751 5.39847 1.1684C4.39135 1.6685 3.59708 2.2482 2.81318 3.06082C1.38555 4.54278 0.520327 6.36598 0.207116 8.5332C0.0548361 9.58532 0.0105365 9.79989 0.00153818 15.174C-0.00192273 16.9653 0.00153818 19.3229 0.00153818 22.4851C0.00153818 31.8711 0.0119208 34.6156 0.0569126 35.1486C0.212653 37.0244 0.506829 38.2046 1.12979 39.4955C2.32035 41.9666 4.59415 43.8216 7.27289 44.5138C8.20042 44.7526 9.22484 44.8841 10.54 44.9465C11.0972 44.9706 16.7766 44.988 22.4594 44.988C28.1421 44.988 33.8249 44.981 34.3683 44.9533C35.8911 44.8816 36.7754 44.763 37.7531 44.5103C39.0813 44.1698 40.3191 43.5432 41.3802 42.6746C42.4412 41.8061 43.2999 40.7164 43.8961 39.4816C44.507 38.2219 44.8167 36.9967 44.9569 35.2188C44.9874 34.8312 45.0002 28.651 45.0002 22.4793C45.0002 16.3064 44.9864 10.1377 44.9559 9.75005C44.814 7.94347 44.5042 6.72868 43.8736 5.4447C43.3563 4.39362 42.7817 3.60868 41.9477 2.8061C40.4595 1.38436 38.639 0.519136 36.4695 0.20627C35.4184 0.0543361 35.2089 0.00934444 29.8307 0H22.5074Z" fill="url(#paint0_radial_343_124)"/>
<path d="M22.5074 0C13.1139 0 10.3666 0.00969053 9.83258 0.0539901C7.90486 0.21423 6.7053 0.517751 5.39847 1.1684C4.39135 1.6685 3.59708 2.2482 2.81318 3.06082C1.38555 4.54278 0.520327 6.36598 0.207116 8.5332C0.0548361 9.58532 0.0105365 9.79989 0.00153818 15.174C-0.00192273 16.9653 0.00153818 19.3229 0.00153818 22.4851C0.00153818 31.8711 0.0119208 34.6156 0.0569126 35.1486C0.212653 37.0244 0.506829 38.2046 1.12979 39.4955C2.32035 41.9666 4.59415 43.8216 7.27289 44.5138C8.20042 44.7526 9.22484 44.8841 10.54 44.9465C11.0972 44.9706 16.7766 44.988 22.4594 44.988C28.1421 44.988 33.8249 44.981 34.3683 44.9533C35.8911 44.8816 36.7754 44.763 37.7531 44.5103C39.0813 44.1698 40.3191 43.5432 41.3802 42.6746C42.4412 41.8061 43.2999 40.7164 43.8961 39.4816C44.507 38.2219 44.8167 36.9967 44.9569 35.2188C44.9874 34.8312 45.0002 28.651 45.0002 22.4793C45.0002 16.3064 44.9864 10.1377 44.9559 9.75005C44.814 7.94347 44.5042 6.72868 43.8736 5.4447C43.3563 4.39362 42.7817 3.60868 41.9477 2.8061C40.4595 1.38436 38.639 0.519136 36.4695 0.20627C35.4184 0.0543361 35.2089 0.00934444 29.8307 0H22.5074Z" fill="url(#paint1_radial_343_124)"/>
<path d="M22.501 9C18.8345 9 18.3744 9.01603 16.9344 9.08156C15.4972 9.14738 14.5162 9.37491 13.6578 9.70875C12.7699 10.0536 12.0167 10.5148 11.2663 11.2655C10.5154 12.0159 10.0541 12.769 9.7082 13.6566C9.3735 14.5153 9.14569 15.4967 9.081 16.9333C9.01687 18.3732 9 18.8336 9 22.5C9 26.1664 9.01631 26.6252 9.08156 28.0652C9.14766 29.5023 9.37519 30.4832 9.70876 31.3416C10.0539 32.2296 10.5151 32.9828 11.2658 33.7331C12.0159 34.4841 12.7691 34.9464 13.6564 35.2913C14.5154 35.625 15.4967 35.8526 16.9336 35.9184C18.3736 35.984 18.8334 36 22.4996 36C26.1663 36 26.625 35.984 28.065 35.9184C29.5022 35.8526 30.4844 35.625 31.3433 35.2913C32.2309 34.9464 32.983 34.4841 33.7331 33.7331C34.4841 32.9828 34.9453 32.2296 35.2913 31.3419C35.6231 30.4833 35.8509 29.502 35.9184 28.0654C35.9831 26.6254 36 26.1664 36 22.5C36 18.8336 35.9831 18.3735 35.9184 16.9335C35.8509 15.4963 35.6231 14.5153 35.2913 13.6569C34.9453 12.769 34.4841 12.0159 33.7331 11.2655C32.9822 10.5145 32.2313 10.0533 31.3425 9.70875C30.4818 9.37491 29.5002 9.14738 28.063 9.08156C26.623 9.01603 26.1646 9 22.4971 9H22.501ZM21.29 11.4328C21.6494 11.4323 22.0505 11.4328 22.501 11.4328C26.1055 11.4328 26.5328 11.4457 27.9561 11.5104C29.2724 11.5706 29.9868 11.7906 30.4626 11.9754C31.0928 12.2201 31.5419 12.5126 32.0141 12.9851C32.4866 13.4576 32.7791 13.9075 33.0244 14.5375C33.2091 15.0128 33.4294 15.7272 33.4892 17.0434C33.5539 18.4667 33.568 18.894 33.568 22.4969C33.568 26.0997 33.5539 26.5272 33.4892 27.9503C33.429 29.2665 33.2091 29.9809 33.0244 30.4563C32.7797 31.0862 32.4866 31.5349 32.0141 32.0072C31.5416 32.4797 31.093 32.772 30.4626 33.0167C29.9873 33.2025 29.2724 33.4218 27.9561 33.4819C26.533 33.5467 26.1055 33.5608 22.501 33.5608C18.8962 33.5608 18.4689 33.5467 17.0458 33.4819C15.7295 33.4212 15.0152 33.2012 14.5391 33.0165C13.9089 32.7718 13.4589 32.4793 12.9864 32.0068C12.5139 31.5343 12.2214 31.0854 11.9762 30.4552C11.7915 29.9799 11.5712 29.2655 11.5113 27.9493C11.4466 26.526 11.4337 26.0985 11.4337 22.4935C11.4337 18.8884 11.4466 18.4633 11.5113 17.0402C11.5715 15.7239 11.7915 15.0094 11.9762 14.5335C12.2209 13.9035 12.5139 13.4537 12.9864 12.9812C13.4589 12.5087 13.9089 12.216 14.5391 11.9708C15.0149 11.7852 15.7295 11.5659 17.0458 11.5054C18.2912 11.4491 18.7738 11.4323 21.29 11.4294V11.4328ZM29.7072 13.6744C29.3868 13.6744 29.0736 13.7694 28.8072 13.9474C28.5407 14.1255 28.3331 14.3785 28.2105 14.6746C28.0879 14.9706 28.0558 15.2964 28.1184 15.6106C28.1809 15.9249 28.3353 16.2135 28.5619 16.4401C28.7885 16.6667 29.0772 16.8209 29.3915 16.8833C29.7059 16.9458 30.0315 16.9136 30.3276 16.7909C30.6236 16.6682 30.8765 16.4604 31.0545 16.194C31.2325 15.9275 31.3274 15.6142 31.3273 15.2938C31.3273 14.3994 30.6016 13.6744 29.7072 13.6744ZM22.501 15.5672C18.6723 15.5672 15.5681 18.6714 15.5681 22.5C15.5681 26.3286 18.6723 29.4314 22.501 29.4314C26.3297 29.4314 29.433 26.3286 29.433 22.5C29.433 18.6714 26.3297 15.5672 22.501 15.5672ZM22.501 18C24.9861 18 27.001 20.0147 27.001 22.5C27.001 24.9851 24.9861 27 22.501 27C20.0156 27 18.0009 24.9851 18.0009 22.5C18.0009 20.0147 20.0156 18 22.501 18Z" fill="white"/>
<defs>
<radialGradient id="paint0_radial_343_124" cx="0" cy="0" r="1" gradientUnits="userSpaceOnUse" gradientTransform="translate(11.9532 48.453) rotate(-90) scale(44.5863 41.4801)">
<stop stop-color="#FFDD55"/>
<stop offset="0.1" stop-color="#FFDD55"/>
<stop offset="0.5" stop-color="#FF543E"/>
<stop offset="1" stop-color="#C837AB"/>
</radialGradient>
<radialGradient id="paint1_radial_343_124" cx="0" cy="0" r="1" gradientUnits="userSpaceOnUse" gradientTransform="translate(-7.53777 3.24085) rotate(78.6776) scale(19.9305 82.1751)">
<stop stop-color="#3771C8"/>
<stop offset="0.128" stop-color="#3771C8"/>
<stop offset="1" stop-color="#6600FF" stop-opacity="0"/>
</radialGradient>
</defs>
</svg>
