<svg width="35" height="35" viewBox="0 0 35 35" fill="none" xmlns="http://www.w3.org/2000/svg">
<path d="M18.9583 29.1666L29.1667 18.9583" stroke="#4E5969" stroke-width="3" stroke-linecap="round" stroke-linejoin="round"/>
<path d="M18.9583 29.1666V20.4166C18.9583 20.0298 19.112 19.6589 19.3855 19.3854C19.659 19.1119 20.0299 18.9583 20.4167 18.9583H29.1667V8.74992C29.1667 7.97637 28.8594 7.2345 28.3124 6.68752C27.7654 6.14054 27.0236 5.83325 26.25 5.83325H8.75C7.97645 5.83325 7.23459 6.14054 6.68761 6.68752C6.14063 7.2345 5.83334 7.97637 5.83334 8.74992V26.2499C5.83334 27.0235 6.14063 27.7653 6.68761 28.3123C7.23459 28.8593 7.97645 29.1666 8.75 29.1666H18.9583Z" stroke="#4E5969" stroke-width="3" stroke-linecap="round" stroke-linejoin="round"/>
</svg>
